<?xml version="1.0" encoding="UTF-8" ?>
<!DOCTYPE svg PUBLIC "-//W3C//DTD SVG 1.1//EN" "http://www.w3.org/Graphics/SVG/1.1/DTD/svg11.dtd">
<svg width="1900pt" height="692pt" viewBox="0 0 1900 692" version="1.1" xmlns="http://www.w3.org/2000/svg">
<g id="#d6d6d6ff">
<path fill="#d6d6d6" opacity="1.00" d=" M 841.82 0.71 C 866.34 0.88 890.87 0.85 915.39 1.14 C 915.47 21.82 915.56 42.51 915.65 63.19 C 890.57 63.41 865.50 64.29 840.42 64.64 C 840.69 43.32 841.65 22.03 841.82 0.71 Z" />
<path fill="#d6d6d6" opacity="1.00" d=" M 968.44 104.64 C 1052.92 102.73 1137.46 102.53 1221.94 104.79 C 1221.68 125.95 1220.80 147.09 1220.41 168.25 C 1162.25 166.64 1104.04 166.86 1045.90 168.75 C 1044.80 168.81 1043.75 168.96 1042.69 169.13 C 1044.28 201.40 1042.62 233.72 1042.66 266.01 C 1042.60 301.55 1044.08 337.38 1051.84 372.17 C 1057.39 395.68 1073.98 415.67 1094.85 427.40 C 1105.10 433.33 1116.45 437.27 1128.10 439.33 C 1179.38 446.88 1231.33 446.71 1283.04 446.19 C 1306.01 445.18 1329.02 445.59 1351.99 444.79 C 1361.84 444.70 1371.69 444.76 1381.54 444.73 C 1381.69 463.76 1381.51 482.80 1381.62 501.84 C 1356.09 501.35 1330.56 501.44 1305.03 501.59 C 1277.01 501.65 1249.02 502.49 1221.00 502.14 C 1196.35 501.17 1171.56 502.14 1147.09 498.58 C 1106.06 492.89 1065.74 477.86 1033.17 451.88 C 1021.07 442.03 1009.74 431.01 1000.82 418.15 C 985.39 395.94 977.17 369.55 972.80 343.08 C 966.71 304.71 967.28 265.72 967.14 226.98 C 966.99 186.19 968.27 145.42 968.44 104.64 Z" />
<path fill="#d6d6d6" opacity="1.00" d=" M 298.90 105.57 C 384.56 103.92 470.26 104.08 555.94 104.39 C 596.64 104.59 638.03 109.46 675.87 125.19 C 695.01 133.04 712.65 144.26 728.51 157.48 C 756.42 181.08 774.64 214.71 782.99 250.01 C 786.60 265.06 788.22 280.53 788.58 295.98 C 790.45 334.00 788.51 372.05 787.16 410.05 C 786.29 419.32 786.74 428.66 785.87 437.94 C 785.39 459.37 784.40 480.79 784.81 502.23 C 763.04 502.16 741.26 502.17 719.49 502.27 C 718.11 453.88 716.76 405.48 715.22 357.09 C 713.82 326.03 714.11 294.76 709.00 264.00 C 705.40 243.10 698.36 222.01 684.00 205.96 C 671.21 191.94 653.40 183.60 635.27 178.92 C 606.49 171.49 576.60 171.02 547.09 169.72 C 515.06 168.58 483.02 168.34 450.98 168.62 C 425.22 168.70 399.47 169.68 373.70 169.88 C 373.83 239.02 373.22 308.16 371.30 377.27 C 354.53 377.37 337.76 377.61 320.99 377.70 C 314.23 377.84 307.46 377.57 300.72 378.16 C 300.52 377.93 300.11 377.46 299.91 377.23 C 297.97 300.82 297.46 224.38 298.41 147.96 C 298.53 133.83 298.80 119.70 298.90 105.57 Z" />
<path fill="#d6d6d6" opacity="1.00" d=" M 840.79 104.76 C 865.97 104.71 891.15 104.75 916.33 104.81 C 916.35 130.22 915.57 155.60 915.70 181.01 C 914.61 288.10 912.63 395.17 911.51 502.26 C 889.62 502.13 867.72 502.23 845.83 502.24 C 845.45 482.14 844.44 462.08 844.19 441.98 C 843.19 429.00 843.75 415.97 842.88 402.99 C 840.59 312.23 838.59 221.40 840.39 130.59 C 840.51 121.98 840.73 113.37 840.79 104.76 Z" />
<path fill="#d6d6d6" opacity="1.00" d=" M 1.96 301.05 C -1.54 236.01 0.82 170.85 1.49 105.77 C 26.83 105.81 52.17 105.76 77.51 105.75 C 77.88 115.49 77.49 125.26 78.13 135.00 C 78.98 193.67 77.67 252.36 78.65 311.03 C 79.81 336.47 82.91 362.50 93.92 385.78 C 100.32 399.17 109.34 411.60 121.34 420.50 C 137.92 432.88 158.50 438.18 178.68 441.10 C 212.57 445.90 246.87 445.21 281.00 446.17 C 303.98 446.42 326.94 445.66 349.93 445.46 C 358.96 445.20 368.01 445.52 377.03 444.84 C 391.59 444.41 406.16 444.58 420.70 443.70 C 421.06 373.30 417.11 302.98 416.53 232.60 C 441.95 232.26 467.35 231.50 492.77 231.27 C 494.25 297.58 491.20 363.87 489.11 430.11 C 488.24 441.03 488.75 452.02 487.88 462.94 C 487.44 476.05 487.61 489.19 486.85 502.29 C 411.91 500.48 336.93 502.12 261.97 501.83 C 243.65 501.64 225.28 502.13 207.02 500.51 C 163.93 497.07 120.58 486.31 83.52 463.45 C 68.19 453.96 54.07 442.45 42.10 428.95 C 22.84 406.43 12.45 377.74 7.13 348.93 C 4.12 333.13 2.97 317.07 1.96 301.05 Z" />
<path fill="#d6d6d6" opacity="1.00" d=" M 1410.24 106.67 C 1434.66 106.67 1459.08 106.79 1483.50 106.74 C 1483.75 161.48 1483.39 216.21 1483.81 270.94 C 1484.67 298.66 1484.10 326.60 1489.01 354.01 C 1492.31 371.95 1498.26 389.85 1509.48 404.47 C 1520.02 418.61 1535.53 428.37 1552.02 434.12 C 1573.85 441.74 1597.11 443.59 1620.02 444.99 C 1633.33 445.70 1646.70 445.39 1660.02 446.16 C 1685.34 446.33 1710.66 446.28 1735.98 446.17 C 1747.62 445.55 1759.29 445.70 1770.95 445.43 C 1790.27 445.30 1809.57 444.38 1828.90 444.29 C 1825.64 373.73 1822.91 303.04 1825.30 232.40 C 1849.91 232.28 1874.51 232.26 1899.12 232.22 C 1898.51 257.76 1898.38 283.33 1898.01 308.88 C 1897.35 336.57 1897.42 364.28 1897.07 391.98 C 1896.11 423.64 1896.84 455.34 1895.65 486.99 C 1895.02 509.18 1893.13 531.43 1888.16 553.11 C 1884.55 569.06 1879.01 584.65 1870.91 598.89 C 1861.89 614.87 1849.16 628.45 1835.23 640.25 C 1804.01 666.12 1764.69 680.44 1724.99 686.68 C 1701.21 690.67 1677.04 690.71 1653.01 691.17 C 1596.34 691.93 1539.67 690.98 1483.00 691.10 C 1460.09 691.12 1437.17 691.03 1414.27 691.73 L 1414.26 691.11 C 1414.07 672.20 1414.21 653.29 1414.26 634.38 C 1443.49 634.77 1472.74 634.63 1501.98 634.82 C 1552.65 635.25 1603.32 635.24 1653.99 635.56 C 1678.00 635.26 1702.14 634.48 1725.83 630.24 C 1747.05 626.30 1768.02 619.07 1785.69 606.44 C 1798.40 597.77 1807.89 585.07 1814.18 571.15 C 1824.02 549.65 1827.69 526.10 1833.68 503.39 C 1778.19 499.74 1722.55 502.28 1667.00 502.18 C 1643.02 501.61 1619.01 501.26 1595.10 499.08 C 1552.52 495.86 1510.86 480.01 1477.20 453.68 C 1451.37 433.42 1430.49 406.09 1420.70 374.52 C 1414.84 355.19 1413.07 334.94 1410.95 314.94 C 1404.66 245.66 1409.70 176.07 1410.24 106.67 Z" />
</g>
<g id="#bb2b3dff">
<path fill="#bb2b3d" opacity="1.00" d=" M 1085.43 634.22 C 1107.35 634.16 1129.27 634.21 1151.20 634.19 C 1150.85 653.17 1151.05 672.15 1151.01 691.12 C 1129.13 691.02 1107.26 691.32 1085.39 690.98 C 1085.52 672.06 1085.45 653.13 1085.43 634.22 Z" />
</g>
<g id="#6ab7c2ff">
<path fill="#6ab7c2" opacity="1.00" d=" M 1151.20 634.19 C 1172.91 634.20 1194.62 634.20 1216.34 634.19 C 1216.43 653.17 1216.39 672.14 1216.36 691.12 C 1194.57 691.12 1172.79 691.12 1151.01 691.12 C 1151.05 672.15 1150.85 653.17 1151.20 634.19 Z" />
</g>
<g id="#7d677cff">
<path fill="#7d677c" opacity="1.00" d=" M 1216.34 634.19 C 1238.32 634.20 1260.31 634.19 1282.30 634.19 C 1282.33 653.17 1282.31 672.15 1282.30 691.12 C 1260.32 691.12 1238.34 691.12 1216.36 691.12 C 1216.39 672.14 1216.43 653.17 1216.34 634.19 Z" />
</g>
<g id="#bed656ff">
<path fill="#bed656" opacity="1.00" d=" M 1282.30 634.19 C 1304.27 634.19 1326.24 634.20 1348.21 634.19 C 1348.30 653.17 1348.23 672.15 1348.24 691.12 C 1326.26 691.12 1304.28 691.12 1282.30 691.12 C 1282.31 672.15 1282.33 653.17 1282.30 634.19 Z" />
</g>
<g id="#f28d4fff">
<path fill="#f28d4f" opacity="1.00" d=" M 1348.21 634.19 C 1370.22 634.32 1392.25 633.94 1414.26 634.38 C 1414.21 653.29 1414.07 672.20 1414.26 691.11 C 1392.25 691.15 1370.24 691.11 1348.24 691.12 C 1348.23 672.15 1348.30 653.17 1348.21 634.19 Z" />
</g>
</svg>
